# xmcd CD database file
# Copyright (C) 1996 Ti Kan
#
# Track frame offsets:
#	183
#	16295
#	41720
#	69383
#	95795
#	112045
#	134020
#	153508
#	178583
#	200195
# Disc length: 3073 seconds
#
# Revision: 1
# Processed by: cddbd v1.4PL0 Copyright (c) Steve Scherf et al.
# Submitted via: CDCOPY 4.744
#
DISCID=950bff0a
DTITLE=Basi - Basi
DYEAR=1900
DGENRE=
TTITLE0=Please don't go
TTITLE1=Rhythm is a dancer
TTITLE2=The one
TTITLE3=La vie en rose
TTITLE4=The great pretender
TTITLE5=I wanna dance with somebody
TTITLE6=Hey Joe
TTITLE7=The best
TTITLE8=You
TTITLE9=We are the world
EXTD=
EXTT0=
EXTT1=
EXTT2=
EXTT3=
EXTT4=
EXTT5=
EXTT6=
EXTT7=
EXTT8=
EXTT9=
PLAYORDER=
